# xmcd
#
# Track frame offsets:
#	150
#	19330
#	35051
#	46891
#	57921
#	70545
#	85737
#	95523
#	110398
#	120948
#	134147
#	151750
#	163526
#	174318
#	184751
#	195005
#	208207
#	222472
#	233283
#
# Disc length: 3426 seconds
#
# Revision: 0
# Processed by: cddbd v1.5PL3 Copyright (c) Steve Scherf et al.
# Submitted via: dBpowerAMP V4.0
#
DISCID=f60d6013
DTITLE=Lowell Fulsom - I've Got The Blues (...And Then Some)(2)
DYEAR=2001
DGENRE=Blues
TTITLE0=I've Got The Blues
TTITLE1=Man On The Run
TTITLE2=This Feeling
TTITLE3=Trouble Everywhere
TTITLE4=Cheating Woman
TTITLE5=Searchin' Out
TTITLE6=Stoned To The Bone
TTITLE7=The Last One To Know
TTITLE8=Baby
TTITLE9=Crying Won't Help
TTITLE10=Deep in Love
TTITLE11=Please Let Me Go
TTITLE12=Stop And Think
TTITLE13=You're Gonna Miss Me
TTITLE14=Henpecked
TTITLE15=Hurry Home
TTITLE16=I Started Out Wrong
TTITLE17=Take My Hand
TTITLE18=Lonesome Christmas Part 2 (Unedited Version)
EXTD=
EXTT0=
EXTT1=
EXTT2=
EXTT3=
EXTT4=
EXTT5=
EXTT6=
EXTT7=
EXTT8=
EXTT9=
EXTT10=
EXTT11=
EXTT12=
EXTT13=
EXTT14=
EXTT15=
EXTT16=
EXTT17=
EXTT18=
PLAYORDER=
